<?xml version="1.0" encoding="utf-8"?>
<!-- Generator: Adobe Illustrator 25.2.1, SVG Export Plug-In . SVG Version: 6.00 Build 0)  -->
<svg version="1.1" id="Layer_1" xmlns="http://www.w3.org/2000/svg" xmlns:xlink="http://www.w3.org/1999/xlink" x="0px" y="0px"
	 viewBox="0 0 15 15" style="enable-background:new 0 0 15 15;" xml:space="preserve">
<style type="text/css">
	.st0{fill:#3A7DCE;}
	.st1{fill:#FFFFFF;}
</style>
<rect class="st0" width="15" height="15"/>
<g>
	<path class="st1" d="M2.9,7.3c-0.2-0.2,0-0.4-0.2-0.4C2.5,7.2,2.6,7,2.5,6.9c0-0.3,0,0-0.2-0.3c-0.2,0,0,0.2-0.3,0
		C1.6,6,2.8,6.3,1.6,5.7C1.5,5.4,1.4,4.9,1.4,4.6C1.5,4.5,1.6,5,1.9,5.1c0.4,0.1,0.7,0.5,1.2,0.6C3.3,5.9,3.5,6.2,3.7,6
		C4.4,5.9,4,5.9,4.8,5.8c0-0.2-0.1-0.3,0.2-0.2C5,5.4,5.1,5,5.1,4.9c0,0,0.1-0.1,0.1-0.1c0-0.2,0-0.2,0.1-0.3
		C5.1,4.4,5.3,4.3,5.4,4.2c0-0.2,0-0.3,0-0.4c0.3-0.1,0.3-0.3,0.4-0.2c0-0.5,0.5-0.2,0.3-0.6c0.1,0,0.2,0,0.3,0.1c0,0,0-0.1,0.1-0.1
		c0.2,0,0.1-0.2,0.2-0.3C6.9,3,7.3,3,7.7,3.1c0.3,0,0.5-0.2,0.6,0.2c0.1,0.1,0.2,0,0.2,0c0.4,0.6,0.8-0.1,1,0.3
		c0.3-0.2,0.2,0.5,0.4,0.4c0.2-0.3,1,0.2,1.1,0.3c0.2-0.2,0.4,0,0.5,0.2c-0.1,0.7,0.6,1.6,0,2.2c0.7,0.1,0.4,0.4,1,0.3
		c-0.1,0.3-0.1,0.3,0.1,0.7c-0.3,0.2,0,0.3-0.2,0.5c0.5,0.4,0.1,0.3,0.1,1c-0.4,0-0.2,0.4-0.5,0.4c0.1,0.5,0.2,0.4-0.2,0.8
		c-0.2-0.1-0.3,0.3-0.1,0.5c-0.2,0-0.3,0-0.1,0.2c-0.1,0.2-0.7,0.1-0.4,0.5c-0.7,0.3,0.1,0.5-0.4,0.4c-0.1,0-0.4,0.2-0.6,0.3
		c0-0.2-0.3,0.2-0.4,0.2c0.1-0.3-0.1-0.1-0.2-0.1c0,0,0-0.1-0.1-0.1c-0.1,0-0.2,0.3-0.3,0.1c-0.2,0.2-0.1,0.2-0.4,0.1
		c-0.5,0.2-0.6-0.3-0.6-0.1c-0.1-0.1-0.1,0-0.2,0c-0.2-0.2-0.2,0-0.3,0c-0.1-0.2-0.4-0.2-0.4-0.3c0-0.1,0.1-0.1,0.2-0.2
		c0-0.1,0-0.1,0.1-0.2c0.2-0.2,0.2-0.5,0.1-0.6c-0.4-1-0.1,0.3-1.3-0.5c-0.1,0-0.5,0.1-0.4-0.1c-0.2,0.3-0.2-0.1-0.5,0.2
		c-0.1,0-0.8-0.2-0.7,0c-0.2-0.1-0.5-0.3-0.7-0.3c-0.3-0.1-0.1-0.3-0.6-0.2c0-0.3,0-0.3-0.2-0.3c0-0.3,0.1-1-0.2-0.8
		C2.8,9,3.2,9,2.8,8.9c0,0,0-0.3-0.1-0.2c0.1,0.4-0.6,0-0.4-0.4c0.5,0.2,0.1-0.4,0.2-0.6c0-0.1,0.3-0.2,0.2-0.4
		C2.8,7.3,2.9,7.3,2.9,7.3"/>
</g>
</svg>
