<?xml version="1.0" encoding="utf-8"?>
<!-- Generator: Adobe Illustrator 25.2.1, SVG Export Plug-In . SVG Version: 6.00 Build 0)  -->
<svg version="1.1" id="Layer_1" xmlns="http://www.w3.org/2000/svg" xmlns:xlink="http://www.w3.org/1999/xlink" x="0px" y="0px"
	 viewBox="0 0 21 15" style="enable-background:new 0 0 21 15;" xml:space="preserve">
<style type="text/css">
	.st0{fill:#3A7DCE;}
	.st1{fill:#FFFFFF;}
</style>
<g>
	<rect class="st0" width="21" height="15"/>
	<g>
		<path class="st1" d="M5.9,7.3c-0.2-0.2,0-0.4-0.2-0.4C5.5,7.2,5.6,7,5.5,6.9c0-0.3,0,0-0.2-0.3c-0.2,0,0,0.2-0.3,0
			C4.6,6,5.8,6.3,4.6,5.7C4.5,5.4,4.4,4.9,4.4,4.6C4.5,4.5,4.6,5,4.9,5.1c0.4,0.1,0.7,0.5,1.2,0.6C6.3,5.9,6.5,6.2,6.7,6
			C7.4,5.9,7,5.9,7.8,5.8c0-0.2-0.1-0.3,0.2-0.2C8,5.4,8.1,5,8.1,4.9c0,0,0.1-0.1,0.1-0.1c0-0.2,0-0.2,0.1-0.3
			C8.1,4.4,8.3,4.3,8.4,4.2c0-0.2,0-0.3,0-0.4c0.3-0.1,0.3-0.3,0.4-0.2c0-0.5,0.5-0.2,0.3-0.6c0.1,0,0.2,0,0.3,0.1
			c0,0,0-0.1,0.1-0.1c0.2,0,0.1-0.2,0.2-0.3c0.1,0.3,0.6,0.2,1,0.3c0.3,0,0.5-0.2,0.6,0.2c0.1,0.1,0.2,0,0.2,0
			c0.4,0.6,0.8-0.1,1,0.3c0.3-0.2,0.2,0.5,0.4,0.4c0.2-0.3,1,0.2,1.1,0.3c0.2-0.2,0.4,0,0.5,0.2c-0.1,0.7,0.6,1.6,0,2.2
			c0.7,0.1,0.4,0.4,1,0.3c-0.1,0.3-0.1,0.3,0.1,0.7c-0.3,0.2,0,0.3-0.2,0.5c0.5,0.4,0.1,0.3,0.1,1c-0.4,0-0.2,0.4-0.5,0.4
			c0.1,0.5,0.2,0.4-0.2,0.8c-0.2-0.1-0.3,0.3-0.1,0.5c-0.2,0-0.3,0-0.1,0.2c-0.1,0.2-0.7,0.1-0.4,0.5c-0.7,0.3,0.1,0.5-0.4,0.4
			c-0.1,0-0.4,0.2-0.6,0.3c0-0.2-0.3,0.2-0.4,0.2c0.1-0.3-0.1-0.1-0.2-0.1c0,0,0-0.1-0.1-0.1c-0.1,0-0.2,0.3-0.3,0.1
			c-0.2,0.2-0.1,0.2-0.4,0.1c-0.5,0.2-0.6-0.3-0.6-0.1c-0.1-0.1-0.1,0-0.2,0c-0.2-0.2-0.2,0-0.3,0c-0.1-0.2-0.4-0.2-0.4-0.3
			c0-0.1,0.1-0.1,0.2-0.2c0-0.1,0-0.1,0.1-0.2c0.2-0.2,0.2-0.5,0.1-0.6c-0.4-1-0.1,0.3-1.3-0.5c-0.1,0-0.5,0.1-0.4-0.1
			c-0.2,0.3-0.2-0.1-0.5,0.2c-0.1,0-0.8-0.2-0.7,0c-0.2-0.1-0.5-0.3-0.7-0.3c-0.3-0.1-0.1-0.3-0.6-0.2c0-0.3,0-0.3-0.2-0.3
			c0-0.3,0.1-1-0.2-0.8C5.8,9,6.2,9,5.8,8.9c0,0,0-0.3-0.1-0.2c0.1,0.4-0.6,0-0.4-0.4c0.5,0.2,0.1-0.4,0.2-0.6
			c0-0.1,0.3-0.2,0.2-0.4C5.8,7.3,5.9,7.3,5.9,7.3"/>
	</g>
</g>
</svg>
